<svg xmlns="http://www.w3.org/2000/svg" width="200" height="30" fill="none" viewBox="0 0 30 10">
  <g mask="url(#a)">
    <path fill="#F36F21" d="m24.189 29.934-1.911-2.524-.834-1.1c-.138-.183-.125-.273.055-.412l.195-.149c.097-.077.1-.078.026-.174l-.564-.727-.575-.74c-.108-.14-.108-.14-.248-.045-.955.64-1.99 1.15-3.075 1.516a12.51 12.51 0 0 1-2.9.623c-3.656.327-6.935-.645-9.775-3.02C2.415 21.367 1 19.051.346 16.266a11.887 11.887 0 0 1-.288-1.925c-.007-.107 0-.219-.058-.317V12.9c.063.008.106.05.152.089.251.21.5.423.753.63.07.057.098.118.103.21.13 2.613 1.039 4.908 2.724 6.887 1.792 2.102 4.056 3.389 6.737 3.919.862.17 1.74.238 2.617.202 2.732-.112 5.168-1.028 7.265-2.822 1.88-1.61 3.127-3.634 3.721-6.065.16-.659.252-1.328.291-2.006a11.43 11.43 0 0 0-.433-3.854c-.023-.078-.037-.136.042-.2.39-.315.774-.638 1.161-.959.02-.016.04-.038.079-.031.039.054.056.123.08.189.354.987.594 2.001.69 3.049.316 3.446-.601 6.517-2.715 9.222a12.373 12.373 0 0 1-1.994 2.008c-.103.083-.104.085-.021.19.382.494.765.987 1.149 1.48.081.104.084.104.188.025.057-.042.111-.088.17-.128.123-.084.216-.073.315.04.05.057.095.12.14.181l2.523 3.324c.028.034.053.07.077.107.06.103.049.2-.038.282a1.329 1.329 0 0 1-.114.093l-1.156.884c-.032.025-.08.038-.09.088h-.227Z"/>
    <path fill="#000" d="M20.255 0c.05.051.12.042.18.058.63.168 1.145.77 1.11 1.541a1.53 1.53 0 0 1-.383.953 1.487 1.487 0 0 1-.893.485c-.785.119-1.517-.408-1.683-1.211a1.522 1.522 0 0 1 1.07-1.764c.059-.017.128-.01.176-.062h.422Zm-13.1 20.956a22293.827 22293.827 0 0 1 .41-7.607c.035-.621.065-1.243.109-1.864a3.46 3.46 0 0 1 .39-1.42c.406-.752 1.04-1.173 1.864-1.315.076-.013.1.01.104.077l.039.56c.037.605.073 1.21.112 1.814l.162 2.505.13 1.977.163 2.488.162 2.488.03.412a.186.186 0 0 1-.068.172c-.524.452-1.046.908-1.566 1.366-.055.048-.093.052-.154.007-.604-.456-1.21-.91-1.819-1.36a.164.164 0 0 1-.073-.168 1.189 1.189 0 0 0 0-.132h.005Zm11.001-4.831.154-3.005c.065-1.222.13-2.443.197-3.664.05-.941.104-1.882.16-2.822.028-.476.121-.94.323-1.373.385-.83 1.033-1.31 1.918-1.466.121-.021.122-.018.13.106.034.539.066 1.078.101 1.616.05.764.104 1.527.154 2.29.059.89.114 1.781.17 2.671l.13 1.978.165 2.505c.025.38.053.758.083 1.137a.199.199 0 0 1-.076.185c-.52.45-1.039.902-1.555 1.356-.068.06-.112.052-.178.002a334.45 334.45 0 0 0-1.794-1.341c-.062-.046-.11-.09-.082-.175Z"/>
    <path fill="#F36F21" d="m15.563 6.219.04.536.13 2.01c.047.725.092 1.45.138 2.176l.13 1.977.13 1.994.13 1.977c.038.55.077 1.098.118 1.647a.213.213 0 0 1-.083.198c-.516.447-1.03.895-1.542 1.346-.075.066-.12.057-.193.003-.592-.447-1.185-.891-1.78-1.333-.068-.05-.098-.1-.092-.19.033-.49.058-.98.084-1.468l.159-2.97.069-1.305.158-2.87c.02-.38.029-.76.073-1.138.052-.435.158-.856.365-1.243.421-.788 1.087-1.211 1.966-1.347Z"/>
    <path fill="#000" d="M10.538 6.495a1.497 1.497 0 0 1-1.5 1.514 1.483 1.483 0 0 1-1.052-.445 1.535 1.535 0 0 1-.438-1.07c-.002-.836.676-1.527 1.498-1.527.826 0 1.494.683 1.492 1.528Z"/>
    <path fill="#F36F21" d="M13.098 3.978a1.542 1.542 0 0 1 .436-1.078 1.494 1.494 0 0 1 1.06-.447c.814 0 1.49.685 1.495 1.514a1.544 1.544 0 0 1-.434 1.08 1.494 1.494 0 0 1-1.058.448 1.496 1.496 0 0 1-1.5-1.517Z"/>
  </g>
</svg>